<svg width="48" height="48" viewBox="0 0 48 48" fill="none" xmlns="http://www.w3.org/2000/svg">
<circle cx="24" cy="24" r="13" fill="#E6F2F7"/>
<path d="M24.0008 37.2008C31.0838 37.2008 36.8258 31.4588 36.8258 24.3758C36.8258 17.2927 31.0838 11.5508 24.0008 11.5508C16.9177 11.5508 11.1758 17.2927 11.1758 24.3758C11.1758 31.4588 16.9177 37.2008 24.0008 37.2008Z" stroke="#000815" stroke-miterlimit="10" stroke-linecap="round" stroke-linejoin="round"/>
<path d="M26.8508 27.5251C26.6258 27.9001 26.3258 28.1251 25.8758 28.3501C25.4258 28.5751 24.9758 28.6501 24.3758 28.7251V29.6251C24.3758 29.7001 24.3758 29.8501 24.3008 29.8501C24.2258 29.9251 24.1508 29.9251 24.0008 29.9251C23.9258 29.9251 23.7758 29.9251 23.7758 29.8501C23.7008 29.7751 23.7008 29.7001 23.7008 29.5501V28.6501C22.8008 28.5751 21.9758 28.4251 21.2258 28.0501C21.1508 27.9751 21.0758 27.9751 21.0008 27.8251C20.9258 27.7501 20.9258 27.6001 20.9258 27.5251C20.9258 27.3751 21.0008 27.3001 21.0758 27.1501C21.1508 27.0751 21.3008 27.0001 21.4508 27.0001C21.5258 27.0001 21.6008 27.0001 21.6758 27.0751C22.3508 27.3751 23.0258 27.5251 23.7758 27.5251V24.7501C23.2508 24.6001 22.7258 24.4501 22.3508 24.3001C21.9758 24.1501 21.6758 23.9251 21.3758 23.5501C21.1508 23.2501 21.0008 22.8751 21.0008 22.3501C21.0008 21.9001 21.0758 21.5251 21.3008 21.1501C21.5258 20.7751 21.8258 20.4751 22.2008 20.2501C22.5758 20.0251 23.1008 19.8751 23.7008 19.8001V18.9751C23.7008 18.9001 23.7008 18.7501 23.7758 18.6751C23.8508 18.6001 23.9258 18.6001 24.0008 18.6001C24.0758 18.6001 24.2258 18.6001 24.3008 18.6751C24.3758 18.7501 24.3758 18.8251 24.3758 18.9751V19.8001C25.2008 19.8001 25.8758 19.9501 26.4758 20.1751C26.7008 20.2501 26.8508 20.4001 26.8508 20.6251C26.8508 20.7751 26.7758 20.8501 26.7008 21.0001C26.6258 21.0751 26.4758 21.1501 26.3258 21.1501C26.2508 21.1501 26.1758 21.1501 26.1008 21.0751C25.5758 20.8501 24.9758 20.7751 24.3008 20.7751V23.7001C24.9008 23.8501 25.3508 24.0001 25.7258 24.1501C26.1008 24.3001 26.4008 24.5251 26.7008 24.9001C26.9258 25.2001 27.0758 25.6501 27.0758 26.1751C27.1508 26.7751 27.0758 27.1501 26.8508 27.5251ZM22.4258 23.2501C22.7258 23.4751 23.1008 23.6251 23.6258 23.7751V21.0751C23.1758 21.1501 22.7258 21.3001 22.4258 21.5251C22.1258 21.7501 21.9758 22.0501 21.9758 22.4251C22.0508 22.8001 22.1258 23.0251 22.4258 23.2501ZM26.1008 26.3251C26.1008 26.0251 25.9508 25.8001 25.6508 25.5751C25.3508 25.4251 24.9008 25.2001 24.3758 25.0501V27.6751C25.5008 27.6001 26.1008 27.1501 26.1008 26.3251Z" fill="#000815"/>
<path d="M28.4266 39.4492H38.6266V36.0742L46.8766 41.6242L38.6266 47.2492V43.7992H25.7266" stroke="#000815" stroke-miterlimit="10" stroke-linecap="round" stroke-linejoin="round"/>
<path d="M19.575 8.55H9.375V11.925L1.125 6.375L9.375 0.75V4.2H22.275" stroke="#000815" stroke-miterlimit="10" stroke-linecap="round" stroke-linejoin="round"/>
</svg>
