<svg width="59" height="58" viewBox="0 0 59 58" fill="none" xmlns="http://www.w3.org/2000/svg">
<path d="M36.0773 6.62716C39.5321 8.22935 41.7668 12.3491 44.6228 15.873C47.5085 19.3848 51.0154 22.3007 53.1082 26.5811C55.1834 30.9029 55.8444 36.5892 53.4354 40.3451C51.0384 44.1304 45.5416 45.9973 40.5691 46.6919C35.6262 47.3743 31.1483 46.9085 26.3728 46.2219C21.627 45.5232 16.5778 44.6744 12.1628 41.821C7.78942 38.9849 5.99099 34.3059 6.89611 29.9999C7.80122 25.694 11.3802 21.7733 15.2497 18.0375C19.0776 14.2844 21.1959 10.5787 24.6074 8.26208C27.9891 5.95759 32.6224 5.02497 36.0773 6.62716Z" fill="#E6F2F7"/>
<path d="M18.9727 16.7999V12.4799C18.9727 6.71992 23.6767 1.91992 29.5327 1.91992H31.3567C37.1167 1.91992 41.9167 6.62392 41.9167 12.4799V16.7999" stroke="black" stroke-miterlimit="10"/>
<path d="M49.214 43.5833C49.214 44.4473 49.118 45.3113 49.022 46.1753H11.774C11.678 45.3113 11.582 44.4473 11.582 43.5833C11.582 34.9433 17.342 31.4873 25.214 30.5273L30.398 35.9993L35.582 30.5273C43.454 31.4873 49.214 34.9433 49.214 43.5833Z" stroke="black" stroke-miterlimit="10" stroke-linecap="round" stroke-linejoin="round"/>
<path d="M35.5828 30.5266L30.3988 35.9986L25.2148 30.5266L26.6548 25.7266C27.8068 26.3986 29.0548 26.6866 30.3988 26.6866C31.7428 26.6866 33.0868 26.3026 34.1428 25.7266L35.5828 30.5266Z" stroke="black" stroke-miterlimit="10"/>
<path d="M38.177 14.2087V18.9127C38.177 23.2327 34.721 26.6887 30.401 26.6887C26.081 26.6887 22.625 23.2327 22.625 18.9127V14.2087C25.121 14.1127 27.425 12.9607 28.961 11.1367C30.401 12.9607 33.473 14.2087 37.025 14.2087H38.177Z" stroke="black" stroke-miterlimit="10"/>
<path d="M44.1243 19.872H41.8203V13.248H44.1243C44.8923 13.248 45.4683 13.824 45.4683 14.592V18.432C45.5643 19.2 44.8923 19.872 44.1243 19.872Z" stroke="black" stroke-miterlimit="10"/>
<path d="M16.6696 19.872H18.9736V13.248H16.6696C15.9016 13.248 15.3256 13.824 15.3256 14.592V18.432C15.2296 19.2 15.9016 19.872 16.6696 19.872Z" stroke="black" stroke-miterlimit="10"/>
<path d="M41.8234 19.8711V20.4471C41.8234 21.7911 41.1514 22.9431 40.1914 23.6151" stroke="black" stroke-miterlimit="10" stroke-linecap="round" stroke-linejoin="round"/>
</svg>
