<?xml version="1.0" encoding="utf-8"?>
<!-- Generator: Adobe Illustrator 28.1.0, SVG Export Plug-In . SVG Version: 6.00 Build 0)  -->
<svg version="1.1" id="Layer_1" xmlns="http://www.w3.org/2000/svg" xmlns:xlink="http://www.w3.org/1999/xlink" x="0px" y="0px"
	 viewBox="0 0 112.9 61.9" style="enable-background:new 0 0 112.9 61.9;" xml:space="preserve">
<style type="text/css">
	.st0{fill:#667C95;}
	.st1{fill:#00254E;}
	.st2{fill:#A0AEBD;}
	.st3{fill:#B3D7E8;}
	.st4{fill:#D9DBDD;}
</style>
<g>
	<path class="st0" d="M7.7,57.2c0,2.7-2,4.7-5.1,4.7c-1,0-2.1-0.2-2.6-0.4v-8.8h2.6C5.7,52.7,7.7,54.6,7.7,57.2z M6.6,57.2
		c0-2-1.4-3.6-4-3.6H1v7.2C1.4,60.9,2.1,61,2.7,61C5.2,61,6.6,59.3,6.6,57.2z"/>
	<path class="st0" d="M10.3,52.7h1v9h-1V52.7z"/>
	<path class="st0" d="M19.6,59.3h-3.9l-1,2.5h-1.1l4-9.1h0.2l4,9.1h-1.1L19.6,59.3z M17.7,54.5l-1.6,3.9h3.2L17.7,54.5z"/>
	<path class="st0" d="M33.3,61.7L32.3,55L29,60.9h-0.2l-3.3-5.9l-1.1,6.8h-1l1.5-9.1h0.2l3.7,6.7l3.7-6.7h0.2l1.5,9.1H33.3z"/>
	<path class="st0" d="M36.3,57.2c0-2.6,2-4.6,4.7-4.6c2.7,0,4.7,2,4.7,4.6c0,2.6-2,4.7-4.7,4.7C38.3,61.9,36.3,59.9,36.3,57.2z
		 M44.6,57.2c0-2.1-1.6-3.7-3.7-3.7c-2.1,0-3.7,1.6-3.7,3.7c0,2.1,1.6,3.8,3.7,3.8C43,61,44.6,59.3,44.6,57.2z"/>
	<path class="st0" d="M55.8,52.7v9h-0.2l-6.5-7v6.9h-1v-9.1h0.2l6.5,6.9v-6.9H55.8z"/>
	<path class="st0" d="M66.7,57.2c0,2.7-2,4.7-5.1,4.7c-1,0-2.1-0.2-2.6-0.4v-8.8h2.6C64.7,52.7,66.7,54.6,66.7,57.2z M65.7,57.2
		c0-2-1.4-3.6-4-3.6H60v7.2c0.5,0.1,1.1,0.2,1.7,0.2C64.3,61,65.7,59.3,65.7,57.2z"/>
	<path class="st1" d="M75.2,61.7l-2.1-3.1c-0.4,0.1-0.8,0.1-1.2,0.1c-0.7,0-1.2-0.1-1.7-0.2v3.2h-1v-9h3.3c2.4,0,3.6,1.1,3.6,2.8
		c0,1.4-0.7,2.4-2.1,2.8l2.2,3.3H75.2z M71.9,57.8c2.2,0,3.2-0.8,3.2-2.3c0-1.2-0.7-2-2.6-2h-2.2v4.1C70.7,57.8,71.2,57.8,71.9,57.8
		z"/>
	<path class="st1" d="M84.5,60.8v0.9h-5.7v-9h5.6v0.9h-4.7v2.8h4.4v0.9h-4.4v3.5H84.5z"/>
	<path class="st1" d="M94.9,52.7v9h-0.2l-6.5-7v6.9h-1v-9.1h0.2l6.5,6.9v-6.9H94.9z"/>
	<path class="st1" d="M97.6,61.4v-0.9c0.4,0.3,1.2,0.6,2,0.6c1.5,0,2.2-0.8,2.2-1.7c0-0.7-0.4-1.3-1.3-1.7l-1.1-0.6
		c-1-0.5-1.7-1.2-1.7-2.1c0-1.3,1.2-2.3,3.1-2.3c0.7,0,1.3,0.2,1.6,0.3v0.9c-0.3-0.2-1-0.4-1.6-0.4c-1.3,0-2.1,0.6-2.1,1.4
		c0,0.6,0.4,1,1.1,1.4l1.1,0.6c1.2,0.6,1.8,1.4,1.8,2.5c0,1.4-1,2.6-3.2,2.6C98.8,61.9,98.1,61.7,97.6,61.4z"/>
	<path class="st1" d="M105.2,57.9v-5.2h1v5.2c0,1.8,1.1,3,2.9,3c1.8,0,2.9-1.2,2.9-3v-5.2h1v5.2c0,2.5-1.5,4-3.9,4
		C106.7,61.9,105.2,60.4,105.2,57.9z"/>
</g>
<g>
	<path class="st0" d="M45.8,24.8C45.8,24.8,45.8,24.8,45.8,24.8c-0.1,0-0.1,0-0.2-0.1c-3.1-1.5-6.2-3-9.3-4.5
		c-0.1,0-0.1-0.1-0.2-0.2c-1.5-2.2-3.1-4.4-4.6-6.6c0,0,0,0-0.1-0.1c0.4,0,1,0,1.5,0l0.5,0l1.7,0c0.3,0,0.7,0,1,0c0.1,0,0.2,0,0.3,0
		c0.1,0,0.3,0,0.4,0c0.1,0,0.2,0,0.3,0c0.1,0,0.2,0,0.2,0c1.2,0,2,0,2,0l0,0C41.7,17.1,43.7,20.9,45.8,24.8z"/>
	<path class="st1" d="M46.9,8.3C46.9,8.3,46.9,8.3,46.9,8.3c-0.3,0.9-0.5,1.8-0.8,2.8c-0.2,0.9-0.5,1.8-0.7,2.8c0,0,0,0-0.1,0
		c-0.9-0.1-1.7-0.2-2.6-0.3c-0.8-0.1-1.7-0.2-2.5-0.3c-0.2,0-0.4,0-0.6-0.1l0,0c0-0.1-0.1-0.5-0.2-1.2c0-0.1,0-0.2,0-0.3
		c0,0,0-0.1,0-0.1c0-0.2,0-0.3-0.1-0.5c0-0.2,0-0.3-0.1-0.5c0-0.1,0-0.2,0-0.4c-0.2-1.8-0.5-4.1-0.8-5.8c0-0.2-0.1-0.5-0.1-0.7
		c0-0.1,0-0.2,0-0.3C41.1,5.1,44,6.7,46.9,8.3C46.9,8.3,46.9,8.3,46.9,8.3L46.9,8.3z"/>
	<path class="st0" d="M65.7,8.3L65.7,8.3c-1.9,1.2-3.7,2.4-5.6,3.6c0,0,0,0,0,0c-1.3-1.8-2.5-3.6-3.8-5.3c-1.3,1.8-2.5,3.6-3.8,5.3
		c0,0,0,0,0,0c-1.9-1.2-3.7-2.4-5.6-3.6l0,0C47.9,5.5,49,2.8,50,0l6.3,6.6L62.5,0C63.6,2.8,64.6,5.5,65.7,8.3
		C65.7,8.3,65.7,8.3,65.7,8.3C65.7,8.3,65.7,8.3,65.7,8.3"/>
	<path class="st0" d="M45.8,24.8C45.8,24.8,45.7,24.9,45.8,24.8c-0.1,0.3-0.2,0.4-0.3,0.6c-1.9,3.6-3.8,7.2-5.7,10.7
		c0,0.1-0.1,0.1-0.1,0.1c0,0,0,0-0.1,0c0,0,0,0-0.1,0h0c-2.6-0.1-5.3-0.1-7.9-0.2c0,0,0,0-0.1,0c0,0,0-0.1,0.1-0.1
		c1.5-2.2,3.1-4.4,4.6-6.5c0.1-0.1,0.2-0.2,0.3-0.2c3.1-1.5,6.1-3,9.2-4.4C45.7,24.8,45.7,24.8,45.8,24.8
		C45.8,24.8,45.8,24.8,45.8,24.8z"/>
	<path class="st0" d="M81.1,36.2c-0.3,0-0.6,0-0.9,0l-6.4,0.1l-0.8,0c-0.4-0.7-0.7-1.4-1.1-2c-1.7-3.1-3.3-6.2-5-9.3c0,0,0,0,0-0.1
		c0,0,0,0,0,0l0-0.1c0.1,0,0.1,0,0.1,0.1l9.3,4.4c0.1,0,0.1,0.1,0.2,0.2c1.5,2.2,3.1,4.4,4.6,6.6C81,36.1,81.1,36.2,81.1,36.2z"/>
	<path class="st0" d="M81.1,13.4c-0.2,0.3-0.4,0.5-0.5,0.7c-1.4,2-2.7,3.9-4.1,5.9c-0.1,0.1-0.2,0.2-0.3,0.2c-3.1,1.5-6.2,3-9.2,4.4
		c0,0-0.1,0-0.1,0.1c0,0,0-0.1,0.1-0.1l0,0c0,0,0,0,0,0l6.1-11.4c0,0,0,0,0,0h0c1,0,2,0,3,0.1l5,0.1C81,13.4,81,13.4,81.1,13.4z"/>
	<path class="st0" d="M58.4,30.2C58.4,30.2,58.4,30.2,58.4,30.2c-0.7,1.3-1.4,2.6-2.2,3.9c-0.7-1.3-1.4-2.6-2.1-3.9l0,0
		c0,0,0.1,0,0.1-0.1c0.7-0.7,1.3-1.5,2-2.2c0,0,0.1-0.1,0.1-0.1c0-1,0-2,0-2.9c0-1,0-1.9,0-2.9c0,0,0-0.1,0-0.1c0,0,0-0.1-0.1-0.1
		c0,0,0,0,0,0c0,0,0,0,0,0c-0.6-0.7-1.3-1.4-1.9-2.2c0,0,0,0-0.1-0.1c0,0,0,0,0,0c0.7-1.3,1.4-2.6,2.1-3.9c0.7,1.3,1.4,2.6,2.2,3.9
		c0,0,0,0,0,0c0,0,0,0-0.1,0c0,0,0,0-0.1,0c-0.1,0.1-0.2,0.2-0.3,0.3c-0.5,0.6-1.1,1.2-1.6,1.8c0,0-0.1,0.1-0.1,0.2
		c0,0.1,0,0.1,0,0.2c0,1.8,0,3.7,0,5.5c0,0.1,0,0.1,0,0.2c0,0.1,0.1,0.1,0.1,0.2c0.4,0.4,0.8,0.9,1.1,1.3
		C57.8,29.5,58.1,29.9,58.4,30.2z"/>
	<path class="st2" d="M56.1,24.8c-0.4,0.2-0.8,0.5-1.2,0.7c-0.7,0.4-1.5,0.8-2.2,1.2c0,0,0,0,0,0c0,0-0.1,0-0.1,0
		c-2-0.6-3.9-1.2-5.9-1.8c0,0-0.1,0-0.1-0.1c0.3-0.1,0.5-0.2,0.8-0.3c1.7-0.6,3.4-1.1,5.1-1.7c0.1,0,0.2,0,0.2,0l0.8,0.5
		c0.1,0,0.1,0.1,0.2,0.1c0.1,0,0.1,0.1,0.2,0.1l0.1,0c0,0,0.1,0,0.1,0.1c0.1,0.1,0.2,0.1,0.3,0.2L56.1,24.8z"/>
	<path class="st2" d="M65.9,24.8c-0.2,0.1-0.5,0.2-0.7,0.2c-1.7,0.5-3.4,1.1-5.2,1.6c-0.1,0-0.1,0-0.2,0c0,0-0.1,0-0.1,0
		c-1.1-0.6-2.2-1.3-3.3-1.9c0,0,0.1,0,0.1-0.1l3.3-1.8c0,0,0,0,0,0c0,0,0,0,0,0c0,0,0.1,0,0.2,0c1.9,0.6,3.9,1.3,5.8,1.9
		C65.8,24.8,65.8,24.8,65.9,24.8C65.9,24.8,65.9,24.8,65.9,24.8z"/>
	<path class="st3" d="M49.4,32.7c0,0-0.1,0.1-0.1,0.1c-1.2,0.9-2.5,1.9-3.7,2.8c-0.1,0-0.1,0.1-0.2,0.1c0,0,0,0,0,0c0,0-0.1,0-0.1,0
		c0,0,0,0,0,0c0,0,0,0,0,0c0,0,0,0,0,0c0,0,0,0,0,0c-0.1,0-0.1,0-0.2,0c0,0,0,0,0,0c0,0,0,0,0,0c0,0-0.1,0-0.1,0l-0.1,0
		c-0.4,0-0.8,0.1-1.3,0.1c-0.3,0-0.5,0.1-0.8,0.1c0,0-0.1,0-0.1,0c-0.7,0.1-1.4,0.1-2.1,0.2c-0.1,0-0.3,0-0.4,0c-0.1,0-0.3,0-0.4,0
		h0c0,0,0,0,0-0.1c0,0,0-0.1,0.1-0.1c2-3.7,4-7.5,6-11.2c0,0,0,0,0,0c0,0,0,0,0,0c0,0,0.1-0.1,0.1-0.1c0,0,0.1,0,0.1,0
		c0,0,0.1,0,0.1,0.1c0,0,0.1,0.1,0.1,0.1c1,2.5,2.1,5,3.1,7.5C49.3,32.5,49.3,32.6,49.4,32.7L49.4,32.7L49.4,32.7L49.4,32.7z"/>
	<path class="st1" d="M63.1,32.7L63,32.6c-1.5-0.8-3-1.6-4.5-2.4c0,0,0,0-0.1,0c0,0,0,0,0,0c0,0-0.1-0.1-0.1-0.1
		c-0.6-0.7-1.2-1.4-1.9-2.1c-0.1-0.1-0.2-0.1-0.3,0c-0.6,0.7-1.3,1.4-1.9,2.2c0,0-0.1,0.1-0.1,0.1c0,0-0.1,0-0.1,0.1
		c-1.5,0.8-3,1.6-4.5,2.4c0,0-0.1,0-0.1,0.1l0,0c0,0,0.1-0.1,0.1-0.2c1.1-1.9,2.1-3.8,3.1-5.6c0-0.1,0.1-0.1,0.1-0.2
		c0,0,0,0,0.1-0.1c1-0.6,2.1-1.2,3.2-1.8c0,0,0.1-0.1,0.2-0.1c-0.1,0-0.1-0.1-0.1-0.1c-0.5-0.3-1.1-0.6-1.6-0.9
		c-0.2-0.1-0.4-0.2-0.6-0.3c-0.1,0-0.1-0.1-0.2-0.1c-0.3-0.2-0.6-0.3-0.8-0.5c-0.1,0-0.1-0.1-0.2-0.2c-1.1-1.9-2.1-3.8-3.2-5.7
		c0,0,0-0.1,0-0.1c0.2,0.1,0.4,0.2,0.6,0.3c1.3,0.7,2.7,1.4,4,2.1c0,0,0.1,0,0.1,0.1c0,0,0.1,0.1,0.1,0.1c0.6,0.7,1.2,1.4,1.9,2.1
		c0,0,0,0,0,0c0.1,0.1,0.2,0.1,0.3,0l1.6-1.8c0.1-0.1,0.2-0.2,0.3-0.3c0,0,0,0,0.1,0c0,0,0,0,0,0c0,0,0,0,0.1,0
		c1.5-0.8,3-1.6,4.5-2.4c0,0,0.1,0,0.1,0c0,0,0,0.1-0.1,0.1c-1,1.9-2.1,3.8-3.1,5.7c0,0,0,0.1-0.1,0.1c0,0,0,0-0.1,0.1c0,0,0,0,0,0
		c0,0,0,0,0,0c0,0,0,0,0,0c-1.1,0.6-2.1,1.2-3.2,1.8c0,0-0.1,0.1-0.2,0.1c0.1,0,0.1,0.1,0.1,0.1c1.1,0.6,2.1,1.2,3.2,1.8
		c0,0,0,0,0,0c0,0,0,0,0,0c0,0,0,0,0.1,0.1c0,0,0,0,0.1,0.1c1.1,1.9,2.1,3.8,3.2,5.8C63.1,32.6,63.1,32.7,63.1,32.7z"/>
	<path class="st1" d="M49.4,16.9C49.4,16.9,49.4,16.9,49.4,16.9L49.4,16.9C49.4,16.9,49.4,16.9,49.4,16.9z"/>
	<path class="st3" d="M49.4,16.9c0,0.1-0.1,0.1-0.1,0.2c-1,2.5-2.1,5-3.2,7.5c0,0.1-0.1,0.1-0.2,0.2c-0.1,0-0.1,0-0.2,0c0,0,0,0,0,0
		c0,0,0,0,0,0c0,0,0,0,0,0c0,0,0,0,0-0.1c-2-3.8-4-7.5-6-11.3c0,0,0-0.1-0.1-0.1c0,0,0,0,0.1,0c0.2,0,0.4,0,0.6,0.1
		c0.8,0.1,1.7,0.2,2.5,0.3c0.9,0.1,1.7,0.2,2.6,0.3c0,0,0,0,0.1,0c0,0,0.1,0,0.1,0c1.3,1,2.5,1.9,3.8,2.9
		C49.3,16.8,49.3,16.9,49.4,16.9z"/>
	<path class="st3" d="M73,13.2c0,0.1-0.1,0.1-0.1,0.2c-2,3.7-4,7.5-6,11.2c0,0,0,0,0,0v0l0,0c0,0-0.1,0.1-0.1,0.1c0,0,0,0-0.1,0
		c-0.1,0-0.1,0-0.2,0c0,0,0-0.1-0.1-0.1c-1.1-2.6-2.2-5.2-3.2-7.8c0,0,0,0,0,0c0,0,0.1-0.1,0.1-0.1c1.2-0.9,2.5-1.9,3.7-2.8
		c0.1,0,0.1-0.1,0.2-0.1c0,0,0.1,0,0.1,0l0.1,0l1.7-0.2l0.3,0c0.8-0.1,1.6-0.2,2.4-0.3C72.2,13.3,72.6,13.3,73,13.2L73,13.2L73,13.2
		L73,13.2z"/>
	<path class="st3" d="M73,36.4L73,36.4c-0.2,0-0.3,0-0.5-0.1l-0.4,0l-0.1,0c-0.1,0-0.2,0-0.3,0c-0.1,0-0.3,0-0.5,0
		c-0.6-0.1-1.1-0.1-1.7-0.2l-2.3-0.3c0,0,0,0-0.1,0c0,0,0,0-0.1,0c-1.3-1-2.6-2-3.9-3c0,0,0,0,0,0c0,0,0,0,0,0c0,0,0-0.1,0-0.1
		c1.1-2.5,2.1-5.1,3.2-7.6c0-0.1,0.1-0.1,0.1-0.1c0.1,0,0.1,0,0.2,0c0,0,0,0,0,0l0,0l0,0c0,0,0,0,0,0c0,0,0,0,0,0
		c2,3.8,4,7.5,6,11.3C72.9,36.3,72.9,36.3,73,36.4z"/>
	<path class="st2" d="M60,11.9c-1.2,1.2-2.5,2.4-3.8,3.6c-1.2-1.2-2.5-2.4-3.7-3.6c1.2-1.8,2.5-3.6,3.8-5.3
		C57.5,8.4,58.8,10.2,60,11.9z"/>
	<path class="st2" d="M60,37.7c-1.2,1.8-2.5,3.6-3.8,5.3c-1.2-1.8-2.5-3.6-3.8-5.4c1.2-1.2,2.5-2.4,3.8-3.6
		C57.5,35.3,58.8,36.5,60,37.7z"/>
	<path class="st3" d="M52.5,12c-1.1,1.7-2.1,3.3-3.1,5l0,0c-1.3-1-2.7-2-4-3c0,0,0,0,0,0c0.2-0.9,0.5-1.9,0.7-2.8
		c0.2-0.9,0.5-1.9,0.7-2.8c0,0,0,0,0,0c0,0,0,0,0,0l0,0l0,0v0l0,0C48.8,9.5,50.6,10.7,52.5,12C52.5,12,52.5,12,52.5,12z"/>
	<path class="st3" d="M67.1,13.9L67.1,13.9c-1.3,1-2.6,2-4,3c0,0,0,0,0,0c-1-1.7-2.1-3.3-3.1-5c0,0,0,0,0,0c1.9-1.2,3.7-2.4,5.6-3.7
		c0,0,0,0,0,0c0,0,0,0,0,0v0v0v0c0.1,0.4,0.2,0.9,0.3,1.3C66.4,11,66.8,12.5,67.1,13.9z"/>
	<path class="st3" d="M52.5,37.6L52.5,37.6C52.5,37.6,52.5,37.6,52.5,37.6c-1.6,1.1-3.2,2.1-4.9,3.2l-0.8,0.5c0,0,0,0,0,0
		c0,0,0,0,0,0c0,0,0-0.1,0-0.1c-0.3-1.2-0.6-2.3-0.9-3.5c-0.2-0.7-0.3-1.3-0.5-2c1.3-1,2.6-2,4-3l0,0l1.6,2.5
		C51.5,36,52,36.8,52.5,37.6L52.5,37.6z"/>
	<path class="st3" d="M67.1,35.7C67.1,35.7,67.1,35.7,67.1,35.7c-0.3,1.3-0.7,2.6-1,3.8c0,0.1,0,0.1-0.1,0.2
		C66,40,66,40.2,65.9,40.4c-0.1,0.3-0.2,0.6-0.2,0.9c0,0,0,0,0,0c0,0,0,0,0,0c-1.9-1.2-3.7-2.4-5.6-3.7l0,0l3.1-5c0,0,0,0,0,0
		C64.5,33.7,65.8,34.7,67.1,35.7z"/>
	<path class="st1" d="M65.7,8.3l8.6-4.8L73,13.2l-5.8,0.7L65.7,8.3z"/>
	<path class="st0" d="M52.5,37.6l-5.6,3.7l3.1,8.2l6.3-6.6L52.5,37.6z"/>
	<path class="st0" d="M60,37.7l5.6,3.7l-3.1,8.3L56.3,43L60,37.7z"/>
	<path class="st4" d="M45.7,24.8L45.7,24.8l0.9,0.1l0-0.1L45.7,24.8z"/>
	<path class="st4" d="M65.8,24.8L65.8,24.8l0.9,0.1l0-0.1L65.8,24.8z"/>
	<path class="st1" d="M65.7,41.3c0.1-0.3,0.2-0.6,0.2-0.9c0-0.1,0-0.1,0.1-0.2c0-0.1,0.1-0.2,0.1-0.3c0,0,0-0.1,0-0.1
		c0-0.1,0-0.1,0.1-0.2c0.1-0.3,0.2-0.7,0.3-1c0.2-0.9,0.5-1.9,0.7-2.8c0,0,0,0,0.1,0l2.3,0.3c0.6,0.1,1.1,0.1,1.7,0.2
		c0.1,0,0.3,0,0.5,0l0.4,0l0.6,0.1c0.1,0,0.2,0,0.3,0c0.1,0.7,0.2,1.3,0.3,2c0.2,1.6,0.4,3.2,0.6,4.9c0.1,0.9,0.2,1.9,0.4,2.8
		c0,0,0,0.1,0,0.1C71.4,44.5,68.5,42.9,65.7,41.3C65.7,41.3,65.7,41.3,65.7,41.3"/>
	<path class="st1" d="M46.9,41.3c-2.9,1.6-5.7,3.2-8.6,4.8c0.4-3.3,0.8-6.6,1.3-9.8l5.8-0.6L46.9,41.3z"/>
</g>
</svg>
