<svg width="49" height="55" viewBox="0 0 49 55" fill="none" xmlns="http://www.w3.org/2000/svg">
<path d="M42.1153 14.6956C43.89 17.7146 44.828 21.6111 43.883 25.3227C42.897 29.0176 40.0451 32.4858 35.2168 37.0483C30.3476 41.5941 23.502 47.2342 16.597 46.9465C9.70913 46.6171 2.76191 40.36 3.29312 34.0397C3.82434 27.7194 11.8102 21.2773 16.7918 16.9239C21.7735 12.5704 23.8089 10.2806 26.3722 9.03618C28.9184 7.8335 32.0505 7.65109 34.9018 8.6223C37.7702 9.55172 40.3406 11.6766 42.1153 14.6956Z" fill="#E6F2F7"/>
<path d="M34.6242 15.0954C39.4437 10.2758 39.2468 2.4388 39.2365 2.10768C39.2262 1.8103 38.988 1.57143 38.6903 1.56187C38.3573 1.55305 30.5177 1.35121 25.6988 6.17052C23.2422 8.62706 22.0901 11.8645 21.5509 14.4956C21.0713 12.8577 20.2495 11.0753 18.8223 9.64809C15.2855 6.11127 9.54997 6.25762 9.30659 6.26418C9.00959 6.27374 8.77072 6.51262 8.7604 6.80962C8.75309 7.05262 8.606 12.7926 12.1421 16.3282C17.38 21.5674 29.3214 20.3978 34.6242 15.0954ZM26.4972 6.9688C30.2655 3.20005 36.2687 2.74321 38.1036 2.69427C38.0536 4.52887 37.5942 10.5291 33.8258 14.2971C30.053 18.0691 24.0528 18.5293 22.2186 18.5796C22.2679 16.7444 22.7251 10.7408 26.4972 6.9688ZM12.9404 15.53C10.3557 12.9452 9.95572 8.87287 9.89769 7.40034C11.3687 7.45771 15.4326 7.85577 18.0239 10.4464C20.6102 13.0329 21.0131 17.1031 21.0718 18.5756C19.5986 18.5176 15.5266 18.1161 12.9404 15.53Z" fill="black"/>
<path d="M44.9556 10.1861C43.8729 10.3577 43.0663 11.1925 42.8715 12.2008L40.9425 21.0479C40.7197 20.8068 40.4484 20.6116 40.1389 20.4745C38.907 19.9294 37.4712 20.4848 36.9271 21.7129L35.3877 25.1839C35.1083 25.8131 34.7525 26.2745 34.2732 26.5987C30.2031 30.129 29.6879 34.51 29.761 37.6983H28.0958C27.7836 37.6983 27.5312 37.9519 27.5312 38.2628V45.8779C27.5312 46.1896 27.7841 46.4424 28.0958 46.4424H41.149C41.4607 46.4424 41.7136 46.1895 41.7136 45.8779V38.2632C41.7136 37.9515 41.4607 37.6987 41.149 37.6987H40.0875L45.7261 28.8505C47.0912 26.7043 47.8219 24.2294 47.8389 21.6943L47.9007 12.7123C47.9145 11.1385 46.5102 9.93262 44.9556 10.1861ZM40.5844 45.3131H28.6604V38.8273L40.5844 38.8277V45.3131ZM46.7097 21.6863C46.6942 24.0094 46.0246 26.2773 44.7733 28.2442L38.7488 37.6981H30.8901C30.8115 34.5465 31.3106 30.6624 34.9555 27.4954C35.5591 27.094 36.0524 26.4706 36.4199 25.6417L37.9593 22.1704C38.2532 21.5077 39.0266 21.2169 39.6817 21.5065C40.339 21.7987 40.6375 22.5647 40.3471 23.226L40.3456 23.2285V23.2289C39.6453 24.803 38.6568 28.2082 35.9347 30.8777C35.712 31.096 35.7091 31.4537 35.9274 31.6761C36.1444 31.8982 36.5016 31.903 36.7258 31.6841C41.624 26.8796 42.367 19.8012 43.9773 12.4293C44.0975 11.8177 44.5696 11.3903 45.1329 11.3012C45.1337 11.3012 45.1344 11.3008 45.1358 11.3008C45.9967 11.1599 46.7793 11.8237 46.7715 12.7031L46.7097 21.6863Z" fill="black"/>
<path d="M19.9033 37.6975H18.2379C18.3101 34.5087 17.7913 30.1244 13.6684 26.5538C13.245 26.2733 12.8899 25.8124 12.6113 25.1831L11.0719 21.7121C10.5271 20.4851 9.08555 19.9316 7.85864 20.4738C7.54552 20.6131 7.27571 20.8104 7.05736 21.0483L5.13052 12.2118C4.92089 11.1453 4.08539 10.3506 3.04346 10.1854C1.47333 9.93391 0.0854559 11.1489 0.0977371 12.7107L0.160268 21.6931C0.177143 24.2297 0.907925 26.7046 2.27311 28.85L7.91171 37.6978H6.85018C6.53846 37.6978 6.28561 37.9507 6.28561 38.2623V45.877C6.28561 46.1887 6.53846 46.4416 6.85018 46.4416H19.9034C20.2151 46.4416 20.4679 46.1886 20.4679 45.877V38.262C20.4678 37.9512 20.2155 37.6975 19.9033 37.6975ZM1.28939 21.6854L1.22686 12.7023C1.22067 11.8265 2.00105 11.1573 2.86252 11.3003C2.86402 11.3003 2.86477 11.3007 2.86542 11.3007C3.4193 11.3883 3.89574 11.8011 4.02474 12.4405C5.80927 20.1897 6.43899 26.9419 11.2733 31.6836C11.4973 31.9023 11.8545 31.8979 12.0717 31.6756C12.29 31.4532 12.2871 31.0955 12.0644 30.8772C9.34674 28.2125 8.12321 24.2838 7.65277 23.2288C7.36167 22.5709 7.65943 21.7978 8.31661 21.5059C8.9738 21.2152 9.74724 21.5122 10.0398 22.1702L11.5792 25.6408C11.9461 26.4696 12.4386 27.0934 12.9863 27.4507C16.6841 30.6582 17.187 34.5453 17.109 37.6975H9.25027L3.2258 28.2436C1.97452 26.2774 1.30486 24.0099 1.28939 21.6854ZM19.3386 45.3125H7.41464V38.8271L19.3387 38.8267L19.3386 45.3125Z" fill="black"/>
</svg>
