<svg width="62" height="66" viewBox="0 0 62 66" fill="none" xmlns="http://www.w3.org/2000/svg">
<path d="M49.5477 35.387C46.894 43.173 44.0139 49.442 34.2778 51.949C24.5417 54.456 7.94965 53.2009 4.74217 45.7318C1.50315 38.3098 11.6963 24.7054 22.6538 17.4839C33.6273 10.3414 45.365 9.58163 50.0203 13.8532C54.644 18.172 52.2329 27.5539 49.5477 35.387Z" fill="#E6F2F7"/>
<g clip-path="url(#clip0_4362_91828)">
<path d="M18.6945 48.4899C10.8945 46.0148 5.26953 38.7398 5.26953 30.1148C5.26953 28.6898 5.41953 27.3398 5.71953 26.0648C7.14453 19.4648 11.8695 14.2148 18.0195 11.9648C20.0445 11.2148 22.2195 10.8398 24.5445 10.8398C28.9695 10.8398 33.0945 12.3398 36.3195 14.8898C38.3445 16.3898 39.9945 18.3398 41.2695 20.5148C42.9195 23.3648 43.8195 26.5898 43.8195 30.1148C43.8195 30.6398 43.8195 31.0898 43.7445 31.6148" stroke="#000815" stroke-miterlimit="10" stroke-linecap="round" stroke-linejoin="round"/>
<path d="M19.5938 13.6154C19.7438 13.7654 19.8937 13.9904 19.9688 14.2154C19.8187 13.9904 19.6688 13.7654 19.5938 13.6154Z" stroke="#000815" stroke-miterlimit="10" stroke-linecap="round" stroke-linejoin="round"/>
<path d="M19.5945 13.5398L19.5195 13.4648C19.5195 13.4648 19.5195 13.4648 19.5945 13.5398ZM19.5945 13.5398C19.5195 13.4648 19.5195 13.5398 19.5945 13.5398Z" stroke="#000815" stroke-miterlimit="10" stroke-linecap="round" stroke-linejoin="round"/>
<path d="M20.1172 14.3652C20.4172 15.2652 20.2672 16.3902 20.0422 17.3652C20.9422 16.6902 21.9172 16.0152 22.9672 15.9402C24.0922 15.8652 25.3672 16.5402 25.4422 17.6652C25.5172 18.2652 25.1422 18.8652 25.2922 19.4652C25.4422 19.9902 25.8922 20.2902 26.1922 20.6652C26.5672 21.0402 26.7922 21.5652 26.5672 22.0152C26.0422 22.9152 24.2422 22.1652 23.7922 23.1402C23.5672 23.6652 23.9422 24.2652 24.4672 24.5652C24.9172 24.8652 25.4422 25.2402 25.5922 25.7652C25.8172 26.5902 24.9172 27.3402 24.0172 27.3402C23.1172 27.3402 22.3672 26.8902 21.6172 26.5152C20.6422 26.0652 19.5922 25.7652 18.4672 25.7652C17.4172 25.8402 16.2922 26.2902 15.6922 27.1902C14.8672 28.3902 15.0172 29.9652 14.8672 31.4652C14.7172 32.9652 14.0422 34.6152 12.6172 34.8402C11.4172 34.9902 10.3672 34.0152 9.91719 32.8902C9.46719 31.7652 9.46719 30.5652 9.31719 29.3652C9.16719 28.6152 8.94219 27.7902 8.49219 27.1902" stroke="#000815" stroke-miterlimit="10" stroke-linecap="round" stroke-linejoin="round"/>
<path d="M21.9922 30.7891C22.0672 30.7891 22.0672 31.3141 21.9922 31.7641" stroke="#000815" stroke-miterlimit="10" stroke-linecap="round" stroke-linejoin="round"/>
<path d="M21.9922 30.789C22.7422 30.639 23.4922 30.939 24.0172 31.389" stroke="#000815" stroke-miterlimit="10" stroke-linecap="round" stroke-linejoin="round"/>
<path d="M36.846 31.3902C36.921 30.9402 36.771 30.5652 36.471 30.2652C36.021 29.8902 35.346 29.9652 34.821 29.7402C33.996 29.2902 33.921 27.9402 34.671 27.2652C35.346 26.5902 36.546 26.5902 37.371 27.0402C38.271 27.4902 38.871 28.2402 39.471 28.9902C39.921 29.6652 40.371 30.4152 40.971 31.0152" stroke="#000815" stroke-miterlimit="10" stroke-linecap="round" stroke-linejoin="round"/>
<path d="M33.6944 16.5391C33.6194 16.7641 33.4694 16.9891 33.4694 17.2891C33.3194 17.9641 33.3944 18.7141 33.4694 19.3891C33.5444 19.9141 33.6194 20.5141 34.0694 20.8141C34.6694 21.1891 35.5694 20.7391 36.3194 20.9641C37.0694 21.1891 37.4444 22.1641 38.1944 22.4641C38.4944 22.5391 38.7194 22.5391 39.0194 22.4641" stroke="#000815" stroke-miterlimit="10" stroke-linecap="round" stroke-linejoin="round"/>
<path d="M51.7687 45.6402V53.7402C51.7687 54.4902 51.1687 55.1652 50.3437 55.1652H48.9187C48.9187 55.0902 48.9187 54.9402 48.9187 54.8652C48.9187 53.4402 47.7937 52.3152 46.3687 52.3152C44.9437 52.3152 43.8187 53.4402 43.8187 54.8652V55.1652H30.6187C30.6187 55.0902 30.6187 54.9402 30.6187 54.8652C30.6187 53.4402 29.4937 52.3152 28.0687 52.3152C26.6437 52.3152 25.5187 53.4402 25.5187 54.8652V55.1652H22.8937C22.1437 55.1652 21.4688 54.5652 21.4688 53.7402V50.6652H44.1937V40.6152H46.5937C47.1187 40.6152 47.7187 40.8402 48.0937 41.2152L51.0187 44.1402C51.5437 44.5902 51.7687 45.1152 51.7687 45.6402Z" stroke="#000815" stroke-miterlimit="10" stroke-linecap="round" stroke-linejoin="round"/>
<path d="M44.3422 36.4145V50.6645H21.6172V36.4145C21.6172 35.2895 22.5172 34.3145 23.7172 34.3145H42.2422C43.4422 34.3145 44.3422 35.2145 44.3422 36.4145Z" stroke="#000815" stroke-miterlimit="10" stroke-linecap="round" stroke-linejoin="round"/>
<path d="M28.1438 57.3402C29.5521 57.3402 30.6938 56.1986 30.6938 54.7902C30.6938 53.3819 29.5521 52.2402 28.1438 52.2402C26.7354 52.2402 25.5938 53.3819 25.5938 54.7902C25.5938 56.1986 26.7354 57.3402 28.1438 57.3402Z" stroke="#000815" stroke-miterlimit="10" stroke-linecap="round" stroke-linejoin="round"/>
<path d="M46.5188 57.3402C47.9271 57.3402 49.0688 56.1986 49.0688 54.7902C49.0688 53.3819 47.9271 52.2402 46.5188 52.2402C45.1104 52.2402 43.9688 53.3819 43.9688 54.7902C43.9688 56.1986 45.1104 57.3402 46.5188 57.3402Z" stroke="#000815" stroke-miterlimit="10" stroke-linecap="round" stroke-linejoin="round"/>
</g>
<defs>
<clipPath id="clip0_4362_91828">
<rect width="48" height="48" fill="white" transform="translate(4.51953 10.0898)"/>
</clipPath>
</defs>
</svg>
