<svg width="57" height="58" viewBox="0 0 57 58" fill="none" xmlns="http://www.w3.org/2000/svg">
<path d="M6.83888 32.1363C5.08724 28.7457 3.58836 24.5607 4.92318 21.5393C6.29584 18.5227 10.4588 16.7025 14.0969 14.9124C17.7568 13.1059 20.8323 11.341 24.0853 10.8474C27.3545 10.375 30.7795 11.1903 34.3005 12.2674C37.8432 13.3281 41.4764 14.6883 44.4064 17.1513C47.3742 19.619 49.6766 23.1942 50.1819 27.062C50.671 30.9085 49.3469 35.0264 47.1616 38.325C44.9384 41.6189 41.7999 44.0675 38.6391 46.667C35.5161 49.2712 32.3546 52.0051 28.9397 52.4207C25.5465 52.8199 21.9055 50.863 19.1697 48.5206C16.396 46.1734 14.533 43.4028 12.5777 40.7358C10.6223 38.0689 8.59053 35.5269 6.83888 32.1363Z" fill="#E6F2F7"/>
<path d="M42.7859 25.4535L41.2859 26.9535L42.1109 28.9035C42.4859 29.7285 42.0359 30.7035 41.2109 31.0785L39.2609 31.9035V34.0035C39.2609 34.9035 38.5109 35.6535 37.6109 35.6535H35.5109L34.6859 37.6035C34.3109 38.4285 33.3359 38.8785 32.5109 38.5035H32.3609L30.4859 37.7535L28.9859 39.2535C28.8359 39.4035 28.6109 39.5535 28.3859 39.6285H27.3359C27.1109 39.5535 26.8109 39.4035 26.6609 39.2535L25.1609 37.7535L23.2859 38.5035L23.1359 38.5785C22.3109 38.9535 21.3359 38.5035 20.9609 37.6785L20.1359 35.7285H18.1109C17.2109 35.7285 16.4609 34.9785 16.4609 34.0785V31.9785L14.5109 31.1535C13.6859 30.7785 13.2359 29.8035 13.6109 28.9785L14.4359 27.0285L12.9359 25.5285C12.2609 24.8535 12.2609 23.8035 12.9359 23.2035L14.4359 21.7035L13.6109 19.6035C13.2359 18.7785 13.6859 17.8035 14.5109 17.4285L16.4609 16.6035V14.5035C16.4609 13.6035 17.2109 12.8535 18.1109 12.8535H20.2109L21.0359 10.9035C21.4109 10.0785 22.3859 9.62852 23.2109 10.0035L25.1609 10.8285L26.6609 9.32852C27.3359 8.65352 28.3859 8.65352 28.9859 9.32852L30.4859 10.8285L32.4359 10.0035C33.2609 9.62852 34.2359 10.0785 34.6109 10.9035L35.4359 12.8535H37.6109C38.5109 12.8535 39.2609 13.6035 39.2609 14.5035V16.6785L41.2109 17.5035C42.0359 17.8785 42.4859 18.8535 42.1109 19.6785L41.2859 21.6285L42.7859 23.1285C43.4609 23.7285 43.4609 24.7785 42.7859 25.4535Z" stroke="black" stroke-miterlimit="10" stroke-linecap="round" stroke-linejoin="round"/>
<path d="M27.3375 39.6285L21.1125 51.5535L19.7625 45.0285L12.9375 47.2785L19.0125 35.7285H20.2125L21.0375 37.6785C21.4125 38.5035 22.3875 38.9535 23.2125 38.5785L23.3625 38.5035L25.2375 37.7535L26.7375 39.2535C26.8875 39.4035 27.1125 39.5535 27.3375 39.6285Z" stroke="black" stroke-miterlimit="10" stroke-linecap="round" stroke-linejoin="round"/>
<path d="M42.9367 47.2043L36.1117 44.9543L34.7617 51.4793L28.3867 39.5543C28.6117 39.4793 28.7617 39.3293 28.9867 39.1793L30.4867 37.6793L32.3617 38.4293L32.5117 38.5043C33.3367 38.8793 34.3117 38.4293 34.6867 37.6043L35.5117 35.6543H36.8617L42.9367 47.2043Z" stroke="black" stroke-miterlimit="10" stroke-linecap="round" stroke-linejoin="round"/>
<path d="M46.6094 20.1289L49.9094 18.3281" stroke="black" stroke-miterlimit="10" stroke-linecap="round" stroke-linejoin="round"/>
<path d="M46.6094 24.0273H51.3344" stroke="black" stroke-miterlimit="10" stroke-linecap="round" stroke-linejoin="round"/>
<path d="M46.6094 28.0039L49.9094 29.8047" stroke="black" stroke-miterlimit="10" stroke-linecap="round" stroke-linejoin="round"/>
<path d="M9.1125 28.002L5.8125 29.8027" stroke="black" stroke-miterlimit="10" stroke-linecap="round" stroke-linejoin="round"/>
<path d="M9.11094 24.0273H4.46094" stroke="black" stroke-miterlimit="10" stroke-linecap="round" stroke-linejoin="round"/>
<path d="M9.1125 20.1289L5.8125 18.3281" stroke="black" stroke-miterlimit="10" stroke-linecap="round" stroke-linejoin="round"/>
<path d="M23.3594 24.7793L25.9844 27.4043L32.3594 21.0293" stroke="black" stroke-miterlimit="10" stroke-linecap="round" stroke-linejoin="round"/>
<path d="M27.8594 34.0039C33.2442 34.0039 37.6094 29.6387 37.6094 24.2539C37.6094 18.8691 33.2442 14.5039 27.8594 14.5039C22.4746 14.5039 18.1094 18.8691 18.1094 24.2539C18.1094 29.6387 22.4746 34.0039 27.8594 34.0039Z" stroke="black" stroke-miterlimit="10" stroke-linecap="round" stroke-linejoin="round"/>
</svg>
