<svg width="48" height="48" viewBox="0 0 48 48" fill="none" xmlns="http://www.w3.org/2000/svg">
<rect x="1" y="27" width="10" height="17" fill="#E6F2F7"/>
<path d="M35.53 41.096C34.4997 41.4097 33.4102 40.8289 33.0965 39.7986L32.5681 38.0634C32.2544 37.0331 32.8352 35.9436 33.8655 35.6299L43.2344 32.7769C44.7438 32.3173 46.34 33.1683 46.7997 34.6777V34.6777C47.2593 36.1872 46.4083 37.7834 44.8989 38.243L35.53 41.096Z" fill="#E6F2F7"/>
<path d="M32 26C38.0751 26 43 21.0751 43 15C43 8.92487 38.0751 4 32 4C25.9249 4 21 8.92487 21 15C21 21.0751 25.9249 26 32 26Z" fill="#E6F2F7"/>
<path d="M32.4207 18.3574H29.174C28.8623 18.3574 28.6094 18.6103 28.6094 18.922C28.6094 19.2338 28.8623 19.4867 29.174 19.4867H31.3017V21.052C31.3017 21.3637 31.5546 21.6166 31.8663 21.6166C32.1781 21.6166 32.431 21.3637 32.431 21.052V19.4857C33.9178 19.48 35.1262 18.2694 35.1262 16.7808C35.1262 15.2887 33.9124 14.0749 32.4207 14.0749H31.3158C30.446 14.0749 29.7388 13.3676 29.7388 12.4983C29.7388 11.629 30.446 10.9217 31.3158 10.9217C31.5603 10.9217 34.6546 10.9217 34.5617 10.9217C34.8734 10.9217 35.1263 10.6688 35.1263 10.357C35.1263 10.0453 34.8734 9.79239 34.5617 9.79239H32.4311V8.22677C32.4311 7.91505 32.1782 7.66211 31.8664 7.66211C31.5547 7.66211 31.3018 7.91505 31.3018 8.22677V9.7938C29.8159 9.80158 28.6095 11.011 28.6095 12.4983C28.6095 13.9904 29.8233 15.2042 31.3158 15.2042H32.4208C33.2898 15.2042 33.997 15.9115 33.997 16.7808C33.997 17.6501 33.2897 18.3574 32.4207 18.3574Z" fill="#000815"/>
<path d="M47.3874 33.5892C46.6547 32.4549 45.3007 31.9431 44.0408 32.2342L32.024 34.7045C32.3025 34.2271 32.4335 33.6716 32.4335 33.187C32.4335 33.187 32.4335 33.1869 32.4335 33.1868C32.4335 33.1867 32.4335 33.1867 32.4335 33.1866C32.4335 33.1865 32.4334 33.1865 32.4334 33.1863C32.4331 31.5202 31.0776 30.1654 29.4111 30.1654C25.0069 30.04 23.5594 30.5096 22.0521 29.5625C18.3053 27.8141 14.7572 27.6927 11.2337 29.1932V27.1096C11.2337 26.7979 10.9807 26.5449 10.669 26.5449H0.662313C0.350594 26.5449 0.0976562 26.7979 0.0976562 27.1096V44.2632C0.0976562 44.5749 0.350594 44.8279 0.662313 44.8279H10.6691C10.9808 44.8279 11.2337 44.5749 11.2337 44.2632V42.0223L25.5513 44.1849C28.811 44.6751 32.1422 44.2449 35.1766 42.923L46.0001 38.2122C47.7999 37.4311 48.4574 35.225 47.3874 33.5892ZM1.22697 43.6985V27.6742H10.1044C10.1044 30.8321 10.1003 26.8447 10.1044 43.6985H1.22697ZM45.5502 37.1766V37.177L34.7259 41.8878C31.8962 43.121 28.7819 43.529 25.7193 43.0681L11.2337 40.8802V30.4273C14.5962 28.8566 17.9796 28.9088 21.5103 30.5503C23.3129 31.6996 25.2605 31.1489 29.4111 31.2947C30.455 31.2947 31.3041 32.1433 31.3042 33.1869C31.3041 34.2298 30.4558 35.078 29.4133 35.078H20.9317C20.62 35.078 20.3671 35.331 20.3671 35.6427C20.3671 35.9544 20.62 36.2074 20.9317 36.2074C21.8851 36.2075 17.4781 36.2067 30.2558 36.2092C30.3661 36.2092 29.6012 36.3515 44.2819 33.338C45.1208 33.1428 45.9854 33.4997 46.4404 34.2051C47.1302 35.2581 46.7082 36.674 45.5502 37.1766Z" fill="#000815"/>
<path d="M31.8651 26.1071C38.19 26.1071 43.3356 20.9644 43.3356 14.6428C43.3356 8.31781 38.1899 3.17188 31.8651 3.17188C25.5435 3.17188 20.4004 8.31791 20.4004 14.6428C20.4004 20.9644 25.5434 26.1071 31.8651 26.1071ZM31.8651 4.30119C37.5672 4.30119 42.2064 8.94031 42.2064 14.6428C42.2064 20.3417 37.5672 24.9778 31.8651 24.9778C26.1658 24.9778 21.5297 20.3417 21.5297 14.6428C21.5296 8.94022 26.1658 4.30119 31.8651 4.30119Z" fill="#000815"/>
</svg>
